<svg width="16" height="16" viewBox="0 0 16 16" xmlns="http://www.w3.org/2000/svg">
  <defs>
    <linearGradient id="grad1" x1="0%" y1="0%" x2="100%" y2="100%">
      <stop offset="0%" style="stop-color:#4a9eff;stop-opacity:1" />
      <stop offset="100%" style="stop-color:#2d5a8f;stop-opacity:1" />
    </linearGradient>
  </defs>
  
  <!-- Base terrain -->
  <path d="M 1 12 Q 3 8, 5 10 T 9 8 T 13 11 L 15 11 L 15 15 L 1 15 Z" 
        fill="url(#grad1)" opacity="0.8"/>
  
  <!-- Mountain peaks -->
  <path d="M 4 10 L 6 5 L 8 10 Z" fill="#5eb3ff" opacity="0.9"/>
  <path d="M 8 8 L 10 3 L 12 8 Z" fill="#7ac5ff" opacity="0.9"/>
  
  <!-- Grid overlay -->
  <line x1="4" y1="1" x2="4" y2="15" stroke="#ffffff" stroke-width="0.5" opacity="0.3"/>
  <line x1="8" y1="1" x2="8" y2="15" stroke="#ffffff" stroke-width="0.5" opacity="0.3"/>
  <line x1="12" y1="1" x2="12" y2="15" stroke="#ffffff" stroke-width="0.5" opacity="0.3"/>
  
  <line x1="1" y1="5" x2="15" y2="5" stroke="#ffffff" stroke-width="0.5" opacity="0.3"/>
  <line x1="1" y1="9" x2="15" y2="9" stroke="#ffffff" stroke-width="0.5" opacity="0.3"/>
  <line x1="1" y1="13" x2="15" y2="13" stroke="#ffffff" stroke-width="0.5" opacity="0.3"/>
  
  <!-- Border -->
  <rect x="0.5" y="0.5" width="15" height="15" fill="none" stroke="#2d5a8f" stroke-width="1"/>
</svg>